<?xml version="1.0" standalone="no"?>
<svg viewBox="0 0 200 200" xmlns="http://www.w3.org/2000/svg">
  <path fill="#0D47A1" d="M37.1,-57.2C47.9,-58.1,56.1,-47.6,59.9,-36.2C63.7,-24.8,63.1,-12.4,58.7,-2.5C54.3,7.3,46.2,14.7,40.1,22.1C34,29.6,30,37.2,23.6,39C17.3,40.8,8.6,36.8,0.3,36.3C-8.1,35.9,-16.2,39,-26.8,39.7C-37.4,40.3,-50.4,38.5,-61.9,31.4C-73.3,24.4,-83.2,12.2,-82.2,0.6C-81.2,-11,-69.2,-22,-57,-27.9C-44.9,-33.7,-32.5,-34.3,-23,-34C-13.4,-33.7,-6.7,-32.6,3.2,-38.2C13.2,-43.8,26.4,-56.2,37.1,-57.2Z" transform="translate(100 100)" />
</svg>
